# xmcd
#
# Track frame offsets: 
#        150
#        18572
#        35528
#        51401
#        68005
#        82222
#        102397
#        116176
#        129537
#        144497
#        163440
#        186117
#
# Disc length: 2728 seconds
#
# Revision: 0
# Processed by: cddbd v1.5.2PL0 Copyright (c) Steve Scherf et al.
# Submitted via: ExactAudioCopy v1.3
#
DISCID=b60aa60c
DTITLE=Robert Jon and The Wreck - Wreckage Vol.1
DYEAR=2017
DGENRE=Blues Rock
TTITLE0=Rhythm Of The Road
TTITLE1=Georgia Mud
TTITLE2=Don't Let The Fire Burn Out
TTITLE3=Breaker
TTITLE4=Back Around
TTITLE5=Water
TTITLE6=On The Run
TTITLE7=Raised By Wolves
TTITLE8=Breaking Down The Road
TTITLE9=Let Her Go
TTITLE10=Cry Of Love
TTITLE11=Gypsy Of Love
EXTD=
EXTT0=
EXTT1=
EXTT2=
EXTT3=
EXTT4=
EXTT5=
EXTT6=
EXTT7=
EXTT8=
EXTT9=
EXTT10=
EXTT11=
PLAYORDER=
